<svg width="8in" height="8in" preserveAspectRatio="none" viewBox="0 0 1 1"><title>SVG drawing</title><desc>This was produced by version 4.1 of GNU libplot, a free library for exporting 2-D vector graphics.</desc><rect width="1" height="1" x="0" y="0" fill="#fff" stroke="none"/><g fill="none" fill-opacity="1" fill-rule="even-odd" stroke="#000" stroke-dasharray="none" stroke-dashoffset="0" stroke-linecap="butt" stroke-linejoin="miter" stroke-miterlimit="10.433" stroke-opacity="1" font-size-adjust="none" font-stretch="normal" font-style="normal" font-variant="normal" font-weight="normal" letter-spacing="normal" text-anchor="start" transform="translate(-0.03125,1.1875) scale(1,-1) scale(0.0017361)" word-spacing="normal" xml:space="preserve"><polygon fill="#fff" stroke="#fff" stroke-width="0" points="1 1 253 1 253 217 1 217"/><polygon stroke="#fff" stroke-width=".45" points="1 1 253 1 253 217 1 217"/><polygon fill="#7fff7f" stroke="#7fff7f" stroke-width="0" points="37 19 235 19 235 181 37 181"/><polygon stroke-width=".45" points="37 19 235 19 235 181 37 181"/><polygon fill="#ffff7f" stroke="#ffff7f" stroke-width="0" points="86.5 77.5 194.5 77.5 194.5 145 86.5 145"/><polygon stroke-width=".45" points="86.5 77.5 194.5 77.5 194.5 145 86.5 145"/><line x1="19" x2="19" y1="109" y2="181" stroke-width=".45"/><polygon fill="#000" stroke-width="0" points="17.2 172.18 19 179.38 20.8 172.18 19 172.18"/><polygon stroke-width=".45" points="17.2 172.18 19 179.38 20.8 172.18 19 172.18"/><line x1="122.5" x2="37" y1="194.5" y2="194.5" stroke-width=".45"/><polygon fill="#000" stroke-width="0" points="45.82 192.7 38.62 194.5 45.82 196.3 45.82 194.5"/><polygon stroke-width=".45" points="45.82 192.7 38.62 194.5 45.82 196.3 45.82 194.5"/><line x1="176.5" x2="235" y1="194.5" y2="194.5" stroke-width=".45"/><polygon fill="#000" stroke-width="0" points="226.18 196.3 233.38 194.5 226.18 192.7 226.18 194.5"/><polygon stroke-width=".45" points="226.18 196.3 233.38 194.5 226.18 192.7 226.18 194.5"/><line x1="19" x2="19" y1="91" y2="19" stroke-width=".45"/><polygon fill="#000" stroke-width="0" points="20.8 27.82 19 20.62 17.2 27.82 19 27.82"/><polygon stroke-width=".45" points="20.8 27.82 19 20.62 17.2 27.82 19 27.82"/><path fill="red" stroke="red" stroke-width="0" d="M111.76,125.2 L111.76,125.1 L111.75,125.01 L111.74,124.92 L111.72,124.83 L111.7,124.74 L111.68,124.65 L111.65,124.56 L111.61,124.48 L111.58,124.39 L111.54,124.31 L111.49,124.24 L111.44,124.16 L111.39,124.09 L111.34,124.02 L111.28,123.95 L111.22,123.88 L111.15,123.82 L111.08,123.76 L111.01,123.71 L110.94,123.66 L110.86,123.61 L110.79,123.56 L110.71,123.52 L110.62,123.49 L110.54,123.45 L110.45,123.42 L110.36,123.4 L110.27,123.38 L110.18,123.36 L110.09,123.35 L110,123.34 L109.9,123.34 C108.87,123.34,108.04,124.17,108.04,125.2 C108.04,126.23,108.87,127.06,109.9,127.06 C110.93,127.06,111.76,126.23,111.76,125.2 Z"/><path stroke="red" stroke-width="1.8" d="M111.76,125.2 L111.76,125.1 L111.75,125.01 L111.74,124.92 L111.72,124.83 L111.7,124.74 L111.68,124.65 L111.65,124.56 L111.61,124.48 L111.58,124.39 L111.54,124.31 L111.49,124.24 L111.44,124.16 L111.39,124.09 L111.34,124.02 L111.28,123.95 L111.22,123.88 L111.15,123.82 L111.08,123.76 L111.01,123.71 L110.94,123.66 L110.86,123.61 L110.79,123.56 L110.71,123.52 L110.62,123.49 L110.54,123.45 L110.45,123.42 L110.36,123.4 L110.27,123.38 L110.18,123.36 L110.09,123.35 L110,123.34 L109.9,123.34 C108.87,123.34,108.04,124.17,108.04,125.2 C108.04,126.23,108.87,127.06,109.9,127.06 C110.93,127.06,111.76,126.23,111.76,125.2 Z"/><text fill="#000" stroke="none" font-family="'Helvetica',sans-serif" font-size="10.8" transform="translate(125.8,190) scale(1,-1)">columns()</text><text fill="#000" stroke="none" font-family="'Helvetica',sans-serif" font-size="10.8" transform="translate(7.0093,95.5) scale(1,-1)">rows()</text><text fill="#000" stroke="none" font-family="'Helvetica',sans-serif" font-size="10.8" transform="translate(41.5,167.5) scale(1,-1)">0,0</text><text fill="#000" stroke="none" font-family="'Helvetica',sans-serif" font-size="10.8" transform="translate(126.39,149.5) scale(1,-1)">columns_</text><text fill="#000" stroke="none" font-family="'Helvetica',sans-serif" font-size="10.8" transform="translate(79.599,149.5) scale(1,-1)">x,y</text><text fill="#000" stroke="none" font-family="'Helvetica',sans-serif" font-size="10.8" transform="translate(53.197,109) scale(1,-1)">rows_</text><text fill="#000" stroke="none" font-family="'Helvetica',sans-serif" font-size="10.8" transform="translate(110.8,113.08) scale(1,-1)">Pixel</text></g></svg>