<svg width="22cm" height="13cm" viewBox="0 0 2200 1300"><g><rect width="2198" height="1298" x="1" y="1" fill="#483d8b" stroke="#00f" stroke-width="1"/><text x="600" y="1100" fill="#fff" stroke-width="1" font-size="40">Average: 20.0</text><path fill="red" stroke="#000" stroke-width="5" d="M700.0,600.0 L340.0,600.0 A360.0,360.0 0 0,1 408.1452123287954,389.2376150414973 z"/><text x="1400" y="140" fill="#fff" stroke-width="1" font-size="40">MagickWand for PHP</text><text x="1800" y="140" fill="#fff" stroke-width="1" font-size="30">(10.0%)</text><rect width="40" height="40" x="1330" y="100" fill="red" stroke="#000" stroke-width="4"/><path fill="#ff0" stroke="#000" stroke-width="5" d="M700.0,600.0 L408.1452123287954,389.2376150414973 A360.0,360.0 0 0,1 976.5894480359858,369.56936567559273 z"/><text x="1400" y="220" fill="#fff" stroke-width="1" font-size="40">MagickCore</text><text x="1800" y="220" fill="#fff" stroke-width="1" font-size="30">(29.0%)</text><rect width="40" height="40" x="1330" y="180" fill="#ff0" stroke="#000" stroke-width="4"/><path fill="#f0f" stroke="#000" stroke-width="5" d="M700.0,600.0 L976.5894480359858,369.56936567559273 A360.0,360.0 0 0,1 964.2680466142854,844.4634932636567 z"/><text x="1400" y="300" fill="#fff" stroke-width="1" font-size="40">MagickWand</text><text x="1800" y="300" fill="#fff" stroke-width="1" font-size="30">(22.9%)</text><rect width="40" height="40" x="1330" y="260" fill="#f0f" stroke="#000" stroke-width="4"/><path fill="#00f" stroke="#000" stroke-width="5" d="M700.0,600.0 L964.2680466142854,844.4634932636567 A360.0,360.0 0 0,1 757.853099990584,955.3210081341651 z"/><text x="1400" y="380" fill="#fff" stroke-width="1" font-size="40">JMagick</text><text x="1800" y="380" fill="#fff" stroke-width="1" font-size="30">(10.6%)</text><rect width="40" height="40" x="1330" y="340" fill="#00f" stroke="#000" stroke-width="4"/><path fill="#0f0" stroke="#000" stroke-width="5" d="M700.0,600.0 L757.853099990584,955.3210081341651 A360.0,360.0 0 0,1 340.0,600.0 z"/><text x="1400" y="460" fill="#fff" stroke-width="1" font-size="40">Magick++</text><text x="1800" y="460" fill="#fff" stroke-width="1" font-size="30">(27.5%)</text><rect width="40" height="40" x="1330" y="420" fill="#0f0" stroke="#000" stroke-width="4"/><text x="100" y="150" fill="#fff" stroke-width="1" font-size="100">ImageMagick</text><circle cx="700" cy="600" r="360" fill="none" stroke="#000" stroke-width="5"/></g></svg>